<svg xmlns="http://www.w3.org/2000/svg" xmlns:xlink="http://www.w3.org/1999/xlink" width="500" zoomAndPan="magnify" viewBox="0 0 375 374.999991" height="500" preserveAspectRatio="xMidYMid meet" version="1.0"><defs><filter x="0%" y="0%" width="100%" height="100%" id="7b1c83e465"><feColorMatrix values="0 0 0 0 1 0 0 0 0 1 0 0 0 0 1 0 0 0 1 0" color-interpolation-filters="sRGB"/></filter><g/><clipPath id="3f0318799c"><path d="M 15.894531 21.324219 L 321.144531 21.324219 L 321.144531 326.574219 L 15.894531 326.574219 Z M 15.894531 21.324219 " clip-rule="nonzero"/></clipPath><clipPath id="1b0f07d337"><path d="M 0.894531 0.324219 L 306.003906 0.324219 L 306.003906 305.574219 L 0.894531 305.574219 Z M 0.894531 0.324219 " clip-rule="nonzero"/></clipPath><clipPath id="5d23af5698"><rect x="0" width="307" y="0" height="306"/></clipPath><clipPath id="24440fb94a"><path d="M 89.492188 81.4375 L 247.742188 81.4375 L 247.742188 266.6875 L 89.492188 266.6875 Z M 89.492188 81.4375 " clip-rule="nonzero"/></clipPath><clipPath id="f19a0bc4f8"><path d="M 69 285 L 362.746094 285 L 362.746094 332.789062 L 69 332.789062 Z M 69 285 " clip-rule="nonzero"/></clipPath><clipPath id="bb587177c7"><path d="M 63.496094 279.539062 L 358 279.539062 L 358 328 L 63.496094 328 Z M 63.496094 279.539062 " clip-rule="nonzero"/></clipPath><mask id="9d1dfd8485"><g filter="url(#7b1c83e465)"><rect x="-37.5" width="450" fill="#000000" y="-37.499999" height="449.999989" fill-opacity="0.63"/></g></mask><clipPath id="e970735f61"><path d="M 0.519531 0.960938 L 153.160156 0.960938 L 153.160156 29.761719 L 0.519531 29.761719 Z M 0.519531 0.960938 " clip-rule="nonzero"/></clipPath><clipPath id="385fbc8437"><rect x="0" width="154" y="0" height="30"/></clipPath><clipPath id="4446eba1bc"><rect x="0" width="154" y="0" height="30"/></clipPath><clipPath id="478911e965"><path d="M 321.011719 288.265625 L 346.511719 288.265625 L 346.511719 318.265625 L 321.011719 318.265625 Z M 321.011719 288.265625 " clip-rule="nonzero"/></clipPath></defs><g clip-path="url(#3f0318799c)"><g transform="matrix(1, 0, 0, 1, 15, 21)"><g clip-path="url(#5d23af5698)"><g clip-path="url(#1b0f07d337)"><path fill="#20369b" d="M 153.449219 305.429688 C 194.199219 305.429688 232.507812 289.5625 261.324219 260.75 C 290.136719 231.933594 306.003906 193.625 306.003906 152.875 C 306.003906 112.128906 290.136719 73.820312 261.324219 45.003906 C 232.507812 16.191406 194.199219 0.324219 153.449219 0.324219 C 112.703125 0.324219 74.390625 16.191406 45.578125 45.003906 C 16.765625 73.820312 0.898438 112.128906 0.898438 152.875 C 0.898438 175.574219 7.257812 196.621094 7.550781 197.578125 C 10.09375 205.890625 13.367188 214.035156 17.296875 221.804688 L 2.347656 297.390625 C 2.054688 298.878906 2.511719 300.421875 3.574219 301.507812 C 4.636719 302.59375 6.167969 303.085938 7.664062 302.824219 L 85.070312 289.253906 C 93.261719 293.375 101.855469 296.765625 110.640625 299.335938 C 111.5 299.585938 131.824219 305.429688 153.449219 305.429688 Z M 153.449219 305.429688 " fill-opacity="1" fill-rule="nonzero"/></g></g></g></g><g clip-path="url(#24440fb94a)"><path fill="#ff751f" d="M 168.453125 81.460938 C 189.46875 81.460938 206.660156 98.652344 206.660156 119.667969 L 206.660156 160.125 C 206.660156 181.140625 189.46875 198.332031 168.453125 198.332031 C 147.4375 198.332031 130.242188 181.140625 130.242188 160.125 L 130.242188 119.667969 C 130.242188 98.652344 147.4375 81.460938 168.453125 81.460938 Z M 99.96875 151.03125 C 99.96875 153.839844 97.671875 156.117188 94.832031 156.117188 C 91.996094 156.117188 89.695312 153.839844 89.695312 151.03125 L 89.695312 128.761719 C 89.695312 125.953125 91.996094 123.675781 94.832031 123.675781 C 97.671875 123.675781 99.96875 125.953125 99.96875 128.761719 Z M 117.59375 160.125 C 117.59375 162.945312 115.332031 165.234375 112.539062 165.234375 C 109.746094 165.234375 107.480469 162.945312 107.480469 160.125 L 107.480469 119.667969 C 107.480469 116.847656 109.746094 114.558594 112.539062 114.558594 C 115.332031 114.558594 117.59375 116.847656 117.59375 119.667969 Z M 247.210938 151.03125 C 247.210938 153.839844 244.910156 156.117188 242.074219 156.117188 C 239.234375 156.117188 236.933594 153.839844 236.933594 151.03125 L 236.933594 128.761719 C 236.933594 125.953125 239.234375 123.675781 242.074219 123.675781 C 244.910156 123.675781 247.210938 125.953125 247.210938 128.761719 Z M 229.425781 160.125 C 229.425781 162.945312 227.160156 165.234375 224.367188 165.234375 C 221.574219 165.234375 219.308594 162.945312 219.308594 160.125 L 219.308594 119.667969 C 219.308594 116.847656 221.574219 114.558594 224.367188 114.558594 C 227.160156 114.558594 229.425781 116.847656 229.425781 119.667969 Z M 154.96875 266.375 L 181.9375 266.375 C 184.761719 266.375 187.046875 264.085938 187.046875 261.265625 C 187.046875 258.445312 184.761719 256.15625 181.9375 256.15625 L 173.5625 256.15625 L 173.5625 230.140625 C 184.292969 229.277344 194.019531 226.367188 202.738281 221.410156 C 212.785156 215.699219 221.417969 207.332031 228.636719 196.3125 C 230.179688 193.953125 229.519531 190.789062 227.160156 189.246094 C 224.800781 187.703125 221.640625 188.367188 220.097656 190.722656 C 213.765625 200.390625 206.304688 207.664062 197.710938 212.550781 C 189.238281 217.367188 179.589844 219.917969 168.761719 220.207031 C 168.660156 220.199219 168.558594 220.195312 168.453125 220.195312 C 168.347656 220.195312 168.246094 220.199219 168.144531 220.207031 C 157.316406 219.917969 147.667969 217.367188 139.195312 212.550781 C 130.601562 207.664062 123.140625 200.390625 116.808594 190.722656 C 115.265625 188.367188 112.105469 187.703125 109.746094 189.246094 C 107.386719 190.789062 106.726562 193.953125 108.269531 196.3125 C 115.488281 207.332031 124.121094 215.699219 134.167969 221.410156 C 142.886719 226.367188 152.613281 229.277344 163.34375 230.140625 L 163.34375 256.15625 L 154.96875 256.15625 C 152.144531 256.15625 149.859375 258.445312 149.859375 261.265625 C 149.859375 264.085938 152.144531 266.375 154.96875 266.375 Z M 154.96875 266.375 " fill-opacity="1" fill-rule="evenodd"/></g><g clip-path="url(#f19a0bc4f8)"><path fill="#20369b" d="M 79.976562 285.546875 L 351.921875 285.546875 C 352.605469 285.546875 353.28125 285.613281 353.949219 285.746094 C 354.617188 285.878906 355.269531 286.078125 355.898438 286.339844 C 356.527344 286.597656 357.125 286.917969 357.695312 287.296875 C 358.261719 287.675781 358.785156 288.109375 359.269531 288.589844 C 359.75 289.070312 360.179688 289.597656 360.558594 290.164062 C 360.9375 290.730469 361.257812 291.328125 361.519531 291.960938 C 361.78125 292.589844 361.976562 293.238281 362.109375 293.910156 C 362.242188 294.578125 362.308594 295.253906 362.308594 295.933594 L 362.308594 322.125 C 362.308594 322.808594 362.242188 323.484375 362.109375 324.152344 C 361.976562 324.820312 361.78125 325.472656 361.519531 326.101562 C 361.257812 326.730469 360.9375 327.332031 360.558594 327.898438 C 360.179688 328.464844 359.75 328.988281 359.269531 329.472656 C 358.785156 329.953125 358.261719 330.382812 357.695312 330.761719 C 357.125 331.140625 356.527344 331.460938 355.898438 331.722656 C 355.269531 331.984375 354.617188 332.179688 353.949219 332.3125 C 353.28125 332.445312 352.605469 332.515625 351.921875 332.515625 L 79.976562 332.515625 C 79.296875 332.515625 78.621094 332.445312 77.953125 332.3125 C 77.28125 332.179688 76.632812 331.984375 76.003906 331.722656 C 75.375 331.460938 74.773438 331.140625 74.207031 330.761719 C 73.640625 330.382812 73.117188 329.953125 72.632812 329.472656 C 72.152344 328.988281 71.71875 328.464844 71.339844 327.898438 C 70.960938 327.332031 70.644531 326.730469 70.382812 326.101562 C 70.121094 325.472656 69.921875 324.820312 69.789062 324.152344 C 69.65625 323.484375 69.589844 322.808594 69.589844 322.125 L 69.589844 295.933594 C 69.589844 295.253906 69.65625 294.578125 69.789062 293.910156 C 69.921875 293.238281 70.121094 292.589844 70.382812 291.960938 C 70.644531 291.328125 70.960938 290.730469 71.339844 290.164062 C 71.71875 289.597656 72.152344 289.070312 72.632812 288.589844 C 73.117188 288.109375 73.640625 287.675781 74.207031 287.296875 C 74.773438 286.917969 75.375 286.597656 76.003906 286.339844 C 76.632812 286.078125 77.28125 285.878906 77.953125 285.746094 C 78.621094 285.613281 79.296875 285.546875 79.976562 285.546875 Z M 79.976562 285.546875 " fill-opacity="1" fill-rule="nonzero"/><path fill="#20369b" d="M 351.921875 333.058594 L 79.976562 333.058594 C 73.949219 333.058594 69.046875 328.15625 69.046875 322.125 L 69.046875 295.933594 C 69.046875 289.90625 73.949219 285 79.976562 285 L 351.921875 285 C 357.953125 285 362.855469 289.90625 362.855469 295.933594 L 362.855469 322.125 C 362.855469 328.15625 357.953125 333.058594 351.921875 333.058594 Z M 79.976562 286.09375 C 74.550781 286.09375 70.136719 290.507812 70.136719 295.933594 L 70.136719 322.125 C 70.136719 327.554688 74.550781 331.96875 79.976562 331.96875 L 351.921875 331.96875 C 357.351562 331.96875 361.765625 327.554688 361.765625 322.125 L 361.765625 295.933594 C 361.765625 290.507812 357.351562 286.09375 351.921875 286.09375 Z M 79.976562 286.09375 " fill-opacity="1" fill-rule="nonzero"/></g><path fill="#d9d9d9" d="M 74.515625 280.085938 L 346.460938 280.085938 C 347.144531 280.085938 347.820312 280.152344 348.488281 280.285156 C 349.15625 280.417969 349.804688 280.617188 350.4375 280.878906 C 351.066406 281.136719 351.664062 281.457031 352.234375 281.835938 C 352.800781 282.214844 353.324219 282.648438 353.804688 283.128906 C 354.289062 283.609375 354.71875 284.136719 355.097656 284.703125 C 355.476562 285.269531 355.796875 285.867188 356.058594 286.5 C 356.320312 287.128906 356.515625 287.777344 356.648438 288.445312 C 356.78125 289.117188 356.847656 289.792969 356.847656 290.472656 L 356.847656 316.664062 C 356.847656 317.347656 356.78125 318.023438 356.648438 318.691406 C 356.515625 319.359375 356.320312 320.011719 356.058594 320.640625 C 355.796875 321.269531 355.476562 321.871094 355.097656 322.4375 C 354.71875 323.003906 354.289062 323.527344 353.804688 324.011719 C 353.324219 324.492188 352.800781 324.921875 352.234375 325.300781 C 351.664062 325.679688 351.066406 326 350.4375 326.261719 C 349.804688 326.523438 349.15625 326.71875 348.488281 326.851562 C 347.820312 326.984375 347.144531 327.050781 346.460938 327.050781 L 74.515625 327.050781 C 73.835938 327.050781 73.160156 326.984375 72.492188 326.851562 C 71.820312 326.71875 71.171875 326.523438 70.542969 326.261719 C 69.910156 326 69.3125 325.679688 68.746094 325.300781 C 68.179688 324.921875 67.65625 324.492188 67.171875 324.011719 C 66.691406 323.527344 66.257812 323.003906 65.878906 322.4375 C 65.5 321.871094 65.179688 321.269531 64.921875 320.640625 C 64.660156 320.011719 64.460938 319.359375 64.328125 318.691406 C 64.195312 318.023438 64.128906 317.347656 64.128906 316.664062 L 64.128906 290.472656 C 64.128906 289.792969 64.195312 289.117188 64.328125 288.445312 C 64.460938 287.777344 64.660156 287.128906 64.921875 286.5 C 65.179688 285.867188 65.5 285.269531 65.878906 284.703125 C 66.257812 284.136719 66.691406 283.609375 67.171875 283.128906 C 67.65625 282.648438 68.179688 282.214844 68.746094 281.835938 C 69.3125 281.457031 69.910156 281.136719 70.542969 280.878906 C 71.171875 280.617188 71.820312 280.417969 72.492188 280.285156 C 73.160156 280.152344 73.835938 280.085938 74.515625 280.085938 Z M 74.515625 280.085938 " fill-opacity="1" fill-rule="nonzero"/><g clip-path="url(#bb587177c7)"><path fill="#20369b" d="M 346.460938 327.597656 L 74.515625 327.597656 C 68.488281 327.597656 63.582031 322.695312 63.582031 316.664062 L 63.582031 290.472656 C 63.582031 284.445312 68.488281 279.539062 74.515625 279.539062 L 346.460938 279.539062 C 352.492188 279.539062 357.394531 284.445312 357.394531 290.472656 L 357.394531 316.664062 C 357.394531 322.695312 352.492188 327.597656 346.460938 327.597656 Z M 74.515625 280.632812 C 69.089844 280.632812 64.675781 285.046875 64.675781 290.472656 L 64.675781 316.664062 C 64.675781 322.09375 69.089844 326.507812 74.515625 326.507812 L 346.460938 326.507812 C 351.890625 326.507812 356.304688 322.09375 356.304688 316.664062 L 356.304688 290.472656 C 356.304688 285.046875 351.890625 280.632812 346.460938 280.632812 Z M 74.515625 280.632812 " fill-opacity="1" fill-rule="nonzero"/></g><path fill="#20369b" d="M 80.601562 317.082031 C 80 317.082031 79.507812 316.589844 79.507812 315.988281 L 79.507812 291.152344 C 79.507812 290.550781 80 290.058594 80.601562 290.058594 C 81.203125 290.058594 81.691406 290.550781 81.691406 291.152344 L 81.691406 316 C 81.691406 316.601562 81.203125 317.089844 80.601562 317.089844 Z M 80.601562 317.082031 " fill-opacity="1" fill-rule="nonzero"/><path fill="#20369b" d="M 85.472656 292.242188 L 75.730469 292.242188 C 75.128906 292.242188 74.636719 291.75 74.636719 291.152344 C 74.636719 290.550781 75.128906 290.058594 75.730469 290.058594 L 85.472656 290.058594 C 86.074219 290.058594 86.5625 290.550781 86.5625 291.152344 C 86.5625 291.75 86.074219 292.242188 85.472656 292.242188 Z M 85.472656 292.242188 " fill-opacity="1" fill-rule="nonzero"/><path fill="#20369b" d="M 85.472656 317.082031 L 75.730469 317.082031 C 75.128906 317.082031 74.636719 316.589844 74.636719 315.988281 C 74.636719 315.386719 75.128906 314.894531 75.730469 314.894531 L 85.472656 314.894531 C 86.074219 314.894531 86.5625 315.386719 86.5625 315.988281 C 86.5625 316.589844 86.074219 317.082031 85.472656 317.082031 Z M 85.472656 317.082031 " fill-opacity="1" fill-rule="nonzero"/><g mask="url(#9d1dfd8485)"><g transform="matrix(1, 0, 0, 1, 107, 288)"><g clip-path="url(#4446eba1bc)"><g clip-path="url(#e970735f61)"><g><g clip-path="url(#385fbc8437)"><g fill="#20369b" fill-opacity="1"><g transform="translate(0.549983, 22.799961)"><g><path d="M 11.765625 -15.0625 L 11.765625 -13.5625 L 7.046875 -13.5625 L 7.046875 0 L 5.28125 0 L 5.28125 -13.5625 L 0.5625 -13.5625 L 0.5625 -15.0625 Z M 11.765625 -15.0625 "/></g></g></g><g fill="#20369b" fill-opacity="1"><g transform="translate(11.435685, 22.799961)"><g><path d="M 4.6875 0.21875 C 3.570312 0.21875 2.695312 -0.0703125 2.0625 -0.65625 C 1.4375 -1.238281 1.125 -2.078125 1.125 -3.171875 C 1.125 -3.835938 1.257812 -4.398438 1.53125 -4.859375 C 1.8125 -5.328125 2.242188 -5.707031 2.828125 -6 C 3.410156 -6.289062 4.175781 -6.515625 5.125 -6.671875 C 5.945312 -6.816406 6.570312 -6.972656 7 -7.140625 C 7.425781 -7.316406 7.710938 -7.507812 7.859375 -7.71875 C 8.015625 -7.9375 8.09375 -8.207031 8.09375 -8.53125 C 8.09375 -9.039062 7.914062 -9.429688 7.5625 -9.703125 C 7.207031 -9.984375 6.640625 -10.125 5.859375 -10.125 C 5.117188 -10.125 4.484375 -9.976562 3.953125 -9.6875 C 3.429688 -9.40625 2.953125 -8.984375 2.515625 -8.421875 L 2.3125 -8.421875 L 1.484375 -9.578125 C 1.960938 -10.191406 2.570312 -10.675781 3.3125 -11.03125 C 4.0625 -11.394531 4.910156 -11.578125 5.859375 -11.578125 C 7.191406 -11.578125 8.175781 -11.285156 8.8125 -10.703125 C 9.445312 -10.117188 9.765625 -9.304688 9.765625 -8.265625 L 9.765625 -2.234375 C 9.765625 -1.597656 10.035156 -1.28125 10.578125 -1.28125 C 10.753906 -1.28125 10.925781 -1.3125 11.09375 -1.375 L 11.234375 -1.34375 L 11.4375 -0.171875 C 11.3125 -0.0859375 11.144531 -0.0234375 10.9375 0.015625 C 10.738281 0.0546875 10.53125 0.078125 10.3125 0.078125 C 9.6875 0.078125 9.210938 -0.0546875 8.890625 -0.328125 C 8.578125 -0.597656 8.375 -1.003906 8.28125 -1.546875 L 8.078125 -1.5625 C 7.753906 -0.96875 7.316406 -0.519531 6.765625 -0.21875 C 6.210938 0.0703125 5.519531 0.21875 4.6875 0.21875 Z M 5.0625 -1.125 C 5.695312 -1.125 6.242188 -1.269531 6.703125 -1.5625 C 7.171875 -1.851562 7.523438 -2.265625 7.765625 -2.796875 C 8.015625 -3.328125 8.140625 -3.9375 8.140625 -4.625 L 8.140625 -6.078125 L 7.953125 -6.109375 C 7.691406 -5.929688 7.378906 -5.78125 7.015625 -5.65625 C 6.648438 -5.539062 6.144531 -5.4375 5.5 -5.34375 C 4.832031 -5.25 4.304688 -5.109375 3.921875 -4.921875 C 3.535156 -4.742188 3.257812 -4.507812 3.09375 -4.21875 C 2.925781 -3.9375 2.84375 -3.585938 2.84375 -3.171875 C 2.84375 -2.503906 3.035156 -1.992188 3.421875 -1.640625 C 3.816406 -1.296875 4.363281 -1.125 5.0625 -1.125 Z M 5.0625 -1.125 "/></g></g></g><g fill="#20369b" fill-opacity="1"><g transform="translate(23.197741, 22.799961)"><g><path d="M 4.53125 0.21875 C 3.71875 0.21875 3.082031 -0.0078125 2.625 -0.46875 C 2.164062 -0.925781 1.9375 -1.609375 1.9375 -2.515625 L 1.9375 -15.9375 L 3.625 -15.9375 L 3.625 -2.625 C 3.625 -2.15625 3.710938 -1.8125 3.890625 -1.59375 C 4.078125 -1.382812 4.359375 -1.28125 4.734375 -1.28125 C 4.972656 -1.28125 5.210938 -1.320312 5.453125 -1.40625 L 5.59375 -1.359375 L 5.796875 -0.046875 C 5.671875 0.0351562 5.492188 0.0976562 5.265625 0.140625 C 5.035156 0.191406 4.789062 0.21875 4.53125 0.21875 Z M 4.53125 0.21875 "/></g></g></g><g fill="#20369b" fill-opacity="1"><g transform="translate(29.382868, 22.799961)"><g><path d="M 1.984375 0 L 1.984375 -15.9375 L 3.65625 -15.9375 L 3.65625 -6.625 L 3.9375 -6.625 L 8.15625 -11.375 L 9.921875 -11.375 L 9.921875 -11.125 L 5.421875 -6.03125 L 10.359375 -0.25 L 10.359375 0 L 8.484375 0 L 3.9375 -5.25 L 3.65625 -5.25 L 3.65625 0 Z M 1.984375 0 "/></g></g></g><g fill="#20369b" fill-opacity="1"><g transform="translate(39.959434, 22.799961)"><g/></g></g><g fill="#20369b" fill-opacity="1"><g transform="translate(45.134323, 22.799961)"><g><path d="M 7.6875 -1.796875 L 8.21875 -0.59375 C 7.957031 -0.332031 7.609375 -0.132812 7.171875 0 C 6.734375 0.144531 6.257812 0.21875 5.75 0.21875 C 3.582031 0.21875 2.5 -0.878906 2.5 -3.078125 L 2.5 -10 L 0.515625 -10 L 0.515625 -11.375 L 2.5 -11.375 L 2.5 -13.78125 L 4.171875 -14.0625 L 4.171875 -11.375 L 7.828125 -11.375 L 7.828125 -10 L 4.171875 -10 L 4.171875 -3.25 C 4.171875 -1.9375 4.738281 -1.28125 5.875 -1.28125 C 6.488281 -1.28125 7.019531 -1.453125 7.46875 -1.796875 Z M 7.6875 -1.796875 "/></g></g></g><g fill="#20369b" fill-opacity="1"><g transform="translate(53.659482, 22.799961)"><g><path d="M 6.53125 0.21875 C 5.457031 0.21875 4.519531 -0.00390625 3.71875 -0.453125 C 2.925781 -0.910156 2.316406 -1.582031 1.890625 -2.46875 C 1.460938 -3.351562 1.25 -4.421875 1.25 -5.671875 C 1.25 -6.929688 1.460938 -8.003906 1.890625 -8.890625 C 2.316406 -9.773438 2.925781 -10.441406 3.71875 -10.890625 C 4.519531 -11.347656 5.457031 -11.578125 6.53125 -11.578125 C 7.59375 -11.578125 8.519531 -11.347656 9.3125 -10.890625 C 10.113281 -10.441406 10.726562 -9.773438 11.15625 -8.890625 C 11.582031 -8.003906 11.796875 -6.929688 11.796875 -5.671875 C 11.796875 -4.421875 11.582031 -3.351562 11.15625 -2.46875 C 10.726562 -1.582031 10.113281 -0.910156 9.3125 -0.453125 C 8.519531 -0.00390625 7.59375 0.21875 6.53125 0.21875 Z M 6.53125 -1.28125 C 7.65625 -1.28125 8.519531 -1.640625 9.125 -2.359375 C 9.726562 -3.078125 10.03125 -4.179688 10.03125 -5.671875 C 10.03125 -7.179688 9.726562 -8.289062 9.125 -9 C 8.519531 -9.71875 7.65625 -10.078125 6.53125 -10.078125 C 5.394531 -10.078125 4.523438 -9.71875 3.921875 -9 C 3.316406 -8.28125 3.015625 -7.171875 3.015625 -5.671875 C 3.015625 -4.179688 3.316406 -3.078125 3.921875 -2.359375 C 4.523438 -1.640625 5.394531 -1.28125 6.53125 -1.28125 Z M 6.53125 -1.28125 "/></g></g></g><g fill="#20369b" fill-opacity="1"><g transform="translate(66.710099, 22.799961)"><g/></g></g><g fill="#20369b" fill-opacity="1"><g transform="translate(71.884988, 22.799961)"><g><path d="M 4.6875 0.21875 C 3.570312 0.21875 2.695312 -0.0703125 2.0625 -0.65625 C 1.4375 -1.238281 1.125 -2.078125 1.125 -3.171875 C 1.125 -3.835938 1.257812 -4.398438 1.53125 -4.859375 C 1.8125 -5.328125 2.242188 -5.707031 2.828125 -6 C 3.410156 -6.289062 4.175781 -6.515625 5.125 -6.671875 C 5.945312 -6.816406 6.570312 -6.972656 7 -7.140625 C 7.425781 -7.316406 7.710938 -7.507812 7.859375 -7.71875 C 8.015625 -7.9375 8.09375 -8.207031 8.09375 -8.53125 C 8.09375 -9.039062 7.914062 -9.429688 7.5625 -9.703125 C 7.207031 -9.984375 6.640625 -10.125 5.859375 -10.125 C 5.117188 -10.125 4.484375 -9.976562 3.953125 -9.6875 C 3.429688 -9.40625 2.953125 -8.984375 2.515625 -8.421875 L 2.3125 -8.421875 L 1.484375 -9.578125 C 1.960938 -10.191406 2.570312 -10.675781 3.3125 -11.03125 C 4.0625 -11.394531 4.910156 -11.578125 5.859375 -11.578125 C 7.191406 -11.578125 8.175781 -11.285156 8.8125 -10.703125 C 9.445312 -10.117188 9.765625 -9.304688 9.765625 -8.265625 L 9.765625 -2.234375 C 9.765625 -1.597656 10.035156 -1.28125 10.578125 -1.28125 C 10.753906 -1.28125 10.925781 -1.3125 11.09375 -1.375 L 11.234375 -1.34375 L 11.4375 -0.171875 C 11.3125 -0.0859375 11.144531 -0.0234375 10.9375 0.015625 C 10.738281 0.0546875 10.53125 0.078125 10.3125 0.078125 C 9.6875 0.078125 9.210938 -0.0546875 8.890625 -0.328125 C 8.578125 -0.597656 8.375 -1.003906 8.28125 -1.546875 L 8.078125 -1.5625 C 7.753906 -0.96875 7.316406 -0.519531 6.765625 -0.21875 C 6.210938 0.0703125 5.519531 0.21875 4.6875 0.21875 Z M 5.0625 -1.125 C 5.695312 -1.125 6.242188 -1.269531 6.703125 -1.5625 C 7.171875 -1.851562 7.523438 -2.265625 7.765625 -2.796875 C 8.015625 -3.328125 8.140625 -3.9375 8.140625 -4.625 L 8.140625 -6.078125 L 7.953125 -6.109375 C 7.691406 -5.929688 7.378906 -5.78125 7.015625 -5.65625 C 6.648438 -5.539062 6.144531 -5.4375 5.5 -5.34375 C 4.832031 -5.25 4.304688 -5.109375 3.921875 -4.921875 C 3.535156 -4.742188 3.257812 -4.507812 3.09375 -4.21875 C 2.925781 -3.9375 2.84375 -3.585938 2.84375 -3.171875 C 2.84375 -2.503906 3.035156 -1.992188 3.421875 -1.640625 C 3.816406 -1.296875 4.363281 -1.125 5.0625 -1.125 Z M 5.0625 -1.125 "/></g></g></g><g fill="#20369b" fill-opacity="1"><g transform="translate(83.647044, 22.799961)"><g><path d="M 5.625 0.21875 C 4.332031 0.21875 3.367188 -0.117188 2.734375 -0.796875 C 2.109375 -1.484375 1.796875 -2.484375 1.796875 -3.796875 L 1.796875 -11.375 L 3.484375 -11.375 L 3.484375 -3.828125 C 3.484375 -2.109375 4.296875 -1.25 5.921875 -1.25 C 6.953125 -1.25 7.765625 -1.582031 8.359375 -2.25 C 8.953125 -2.925781 9.25 -4.019531 9.25 -5.53125 L 9.25 -11.375 L 10.9375 -11.375 L 10.9375 0 L 9.34375 0 L 9.34375 -1.78125 L 9.125 -1.828125 C 8.738281 -1.140625 8.269531 -0.625 7.71875 -0.28125 C 7.175781 0.0507812 6.476562 0.21875 5.625 0.21875 Z M 5.625 0.21875 "/></g></g></g><g fill="#20369b" fill-opacity="1"><g transform="translate(96.563658, 22.799961)"><g><path d="M 7.6875 -1.796875 L 8.21875 -0.59375 C 7.957031 -0.332031 7.609375 -0.132812 7.171875 0 C 6.734375 0.144531 6.257812 0.21875 5.75 0.21875 C 3.582031 0.21875 2.5 -0.878906 2.5 -3.078125 L 2.5 -10 L 0.515625 -10 L 0.515625 -11.375 L 2.5 -11.375 L 2.5 -13.78125 L 4.171875 -14.0625 L 4.171875 -11.375 L 7.828125 -11.375 L 7.828125 -10 L 4.171875 -10 L 4.171875 -3.25 C 4.171875 -1.9375 4.738281 -1.28125 5.875 -1.28125 C 6.488281 -1.28125 7.019531 -1.453125 7.46875 -1.796875 Z M 7.6875 -1.796875 "/></g></g></g><g fill="#20369b" fill-opacity="1"><g transform="translate(105.088816, 22.799961)"><g><path d="M 6.53125 0.21875 C 5.457031 0.21875 4.519531 -0.00390625 3.71875 -0.453125 C 2.925781 -0.910156 2.316406 -1.582031 1.890625 -2.46875 C 1.460938 -3.351562 1.25 -4.421875 1.25 -5.671875 C 1.25 -6.929688 1.460938 -8.003906 1.890625 -8.890625 C 2.316406 -9.773438 2.925781 -10.441406 3.71875 -10.890625 C 4.519531 -11.347656 5.457031 -11.578125 6.53125 -11.578125 C 7.59375 -11.578125 8.519531 -11.347656 9.3125 -10.890625 C 10.113281 -10.441406 10.726562 -9.773438 11.15625 -8.890625 C 11.582031 -8.003906 11.796875 -6.929688 11.796875 -5.671875 C 11.796875 -4.421875 11.582031 -3.351562 11.15625 -2.46875 C 10.726562 -1.582031 10.113281 -0.910156 9.3125 -0.453125 C 8.519531 -0.00390625 7.59375 0.21875 6.53125 0.21875 Z M 6.53125 -1.28125 C 7.65625 -1.28125 8.519531 -1.640625 9.125 -2.359375 C 9.726562 -3.078125 10.03125 -4.179688 10.03125 -5.671875 C 10.03125 -7.179688 9.726562 -8.289062 9.125 -9 C 8.519531 -9.71875 7.65625 -10.078125 6.53125 -10.078125 C 5.394531 -10.078125 4.523438 -9.71875 3.921875 -9 C 3.316406 -8.28125 3.015625 -7.171875 3.015625 -5.671875 C 3.015625 -4.179688 3.316406 -3.078125 3.921875 -2.359375 C 4.523438 -1.640625 5.394531 -1.28125 6.53125 -1.28125 Z M 6.53125 -1.28125 "/></g></g></g><g fill="#20369b" fill-opacity="1"><g transform="translate(118.314701, 22.799961)"><g><path d="M 6.9375 -6.5625 L 1.078125 -6.5625 L 1.078125 -8.078125 L 6.9375 -8.078125 Z M 6.9375 -6.5625 "/></g></g></g><g fill="#20369b" fill-opacity="1"><g transform="translate(126.314132, 22.799961)"><g><path d="M 2.53125 0 L 2.53125 -10 L 0.5625 -10 L 0.5625 -11.375 L 2.53125 -11.375 C 2.40625 -11.875 2.34375 -12.347656 2.34375 -12.796875 C 2.34375 -13.523438 2.5 -14.140625 2.8125 -14.640625 C 3.125 -15.148438 3.554688 -15.53125 4.109375 -15.78125 C 4.671875 -16.03125 5.316406 -16.15625 6.046875 -16.15625 C 7.179688 -16.15625 8.050781 -15.910156 8.65625 -15.421875 L 8.015625 -14.234375 L 7.796875 -14.1875 C 7.347656 -14.550781 6.765625 -14.734375 6.046875 -14.734375 C 5.378906 -14.734375 4.875 -14.5625 4.53125 -14.21875 C 4.195312 -13.875 4.03125 -13.382812 4.03125 -12.75 C 4.03125 -12.351562 4.09375 -11.894531 4.21875 -11.375 L 7.828125 -11.375 L 7.828125 -10 L 4.21875 -10 L 4.21875 0 Z M 2.53125 0 "/></g></g></g><g fill="#20369b" fill-opacity="1"><g transform="translate(134.416647, 22.799961)"><g><path d="M 2.828125 -13.5625 C 2.460938 -13.5625 2.171875 -13.671875 1.953125 -13.890625 C 1.734375 -14.117188 1.625 -14.40625 1.625 -14.75 C 1.625 -15.09375 1.734375 -15.375 1.953125 -15.59375 C 2.171875 -15.820312 2.460938 -15.9375 2.828125 -15.9375 C 3.179688 -15.9375 3.46875 -15.820312 3.6875 -15.59375 C 3.914062 -15.375 4.03125 -15.09375 4.03125 -14.75 C 4.03125 -14.40625 3.914062 -14.117188 3.6875 -13.890625 C 3.46875 -13.671875 3.179688 -13.5625 2.828125 -13.5625 Z M 1.984375 0 L 1.984375 -11.375 L 3.65625 -11.375 L 3.65625 0 Z M 1.984375 0 "/></g></g></g><g fill="#20369b" fill-opacity="1"><g transform="translate(140.055429, 22.799961)"><g><path d="M 4.53125 0.21875 C 3.71875 0.21875 3.082031 -0.0078125 2.625 -0.46875 C 2.164062 -0.925781 1.9375 -1.609375 1.9375 -2.515625 L 1.9375 -15.9375 L 3.625 -15.9375 L 3.625 -2.625 C 3.625 -2.15625 3.710938 -1.8125 3.890625 -1.59375 C 4.078125 -1.382812 4.359375 -1.28125 4.734375 -1.28125 C 4.972656 -1.28125 5.210938 -1.320312 5.453125 -1.40625 L 5.59375 -1.359375 L 5.796875 -0.046875 C 5.671875 0.0351562 5.492188 0.0976562 5.265625 0.140625 C 5.035156 0.191406 4.789062 0.21875 4.53125 0.21875 Z M 4.53125 0.21875 "/></g></g></g><g fill="#20369b" fill-opacity="1"><g transform="translate(146.240555, 22.799961)"><g><path d="M 4.53125 0.21875 C 3.71875 0.21875 3.082031 -0.0078125 2.625 -0.46875 C 2.164062 -0.925781 1.9375 -1.609375 1.9375 -2.515625 L 1.9375 -15.9375 L 3.625 -15.9375 L 3.625 -2.625 C 3.625 -2.15625 3.710938 -1.8125 3.890625 -1.59375 C 4.078125 -1.382812 4.359375 -1.28125 4.734375 -1.28125 C 4.972656 -1.28125 5.210938 -1.320312 5.453125 -1.40625 L 5.59375 -1.359375 L 5.796875 -0.046875 C 5.671875 0.0351562 5.492188 0.0976562 5.265625 0.140625 C 5.035156 0.191406 4.789062 0.21875 4.53125 0.21875 Z M 4.53125 0.21875 "/></g></g></g></g></g></g></g></g></g><g clip-path="url(#478911e965)"><path fill="#20369b" d="M 333.917969 288.265625 C 337.355469 288.265625 340.164062 291.078125 340.164062 294.511719 L 340.164062 301.128906 C 340.164062 304.5625 337.355469 307.375 333.917969 307.375 C 330.484375 307.375 327.671875 304.5625 327.671875 301.128906 L 327.671875 294.511719 C 327.671875 291.078125 330.484375 288.265625 333.917969 288.265625 Z M 322.722656 299.640625 C 322.722656 300.101562 322.347656 300.472656 321.882812 300.472656 C 321.421875 300.472656 321.042969 300.101562 321.042969 299.640625 L 321.042969 296 C 321.042969 295.542969 321.421875 295.167969 321.882812 295.167969 C 322.347656 295.167969 322.722656 295.542969 322.722656 296 Z M 325.605469 301.128906 C 325.605469 301.589844 325.234375 301.960938 324.777344 301.960938 C 324.324219 301.960938 323.953125 301.589844 323.953125 301.128906 L 323.953125 294.511719 C 323.953125 294.050781 324.324219 293.679688 324.777344 293.679688 C 325.234375 293.679688 325.605469 294.050781 325.605469 294.511719 Z M 346.792969 299.640625 C 346.792969 300.101562 346.417969 300.472656 345.953125 300.472656 C 345.492188 300.472656 345.113281 300.101562 345.113281 299.640625 L 345.113281 296 C 345.113281 295.542969 345.492188 295.167969 345.953125 295.167969 C 346.417969 295.167969 346.792969 295.542969 346.792969 296 Z M 343.886719 301.128906 C 343.886719 301.589844 343.515625 301.960938 343.058594 301.960938 C 342.605469 301.960938 342.234375 301.589844 342.234375 301.128906 L 342.234375 294.511719 C 342.234375 294.050781 342.605469 293.679688 343.058594 293.679688 C 343.515625 293.679688 343.886719 294.050781 343.886719 294.511719 Z M 331.714844 318.496094 L 336.125 318.496094 C 336.585938 318.496094 336.960938 318.121094 336.960938 317.660156 C 336.960938 317.199219 336.585938 316.828125 336.125 316.828125 L 334.753906 316.828125 L 334.753906 312.574219 C 336.507812 312.433594 338.097656 311.957031 339.523438 311.144531 C 341.167969 310.210938 342.578125 308.84375 343.757812 307.042969 C 344.011719 306.65625 343.902344 306.140625 343.515625 305.886719 C 343.132812 305.636719 342.613281 305.742188 342.363281 306.128906 C 341.328125 307.710938 340.105469 308.898438 338.703125 309.699219 C 337.316406 310.484375 335.738281 310.902344 333.96875 310.949219 C 333.953125 310.949219 333.9375 310.949219 333.917969 310.949219 C 333.902344 310.949219 333.886719 310.949219 333.867188 310.949219 C 332.097656 310.902344 330.523438 310.484375 329.136719 309.699219 C 327.730469 308.898438 326.511719 307.710938 325.476562 306.128906 C 325.226562 305.742188 324.707031 305.636719 324.324219 305.886719 C 323.9375 306.140625 323.828125 306.65625 324.082031 307.042969 C 325.261719 308.84375 326.671875 310.210938 328.316406 311.144531 C 329.742188 311.957031 331.332031 312.433594 333.085938 312.574219 L 333.085938 316.828125 L 331.714844 316.828125 C 331.253906 316.828125 330.878906 317.199219 330.878906 317.660156 C 330.878906 318.121094 331.253906 318.496094 331.714844 318.496094 Z M 331.714844 318.496094 " fill-opacity="1" fill-rule="evenodd"/></g></svg>